<svg xmlns="http://www.w3.org/2000/svg" style="display:none" aria-hidden="true"><symbol id="i-play" viewBox="0 0 24 24"><path d="M5 5a2 2 0 0 1 3.008-1.728l11.997 6.998a2 2 0 0 1 .003 3.458l-12 7A2 2 0 0 1 5 19z" /></symbol><symbol id="i-pause" viewBox="0 0 24 24"><rect x="14" y="3" width="5" height="18" rx="1" />
  <rect x="5" y="3" width="5" height="18" rx="1" /></symbol><symbol id="i-square" viewBox="0 0 24 24"><rect width="18" height="18" x="3" y="3" rx="2" /></symbol><symbol id="i-skip-back" viewBox="0 0 24 24"><path d="M17.971 4.285A2 2 0 0 1 21 6v12a2 2 0 0 1-3.029 1.715l-9.997-5.998a2 2 0 0 1-.003-3.432z" />
  <path d="M3 20V4" /></symbol><symbol id="i-skip-forward" viewBox="0 0 24 24"><path d="M21 4v16" />
  <path d="M6.029 4.285A2 2 0 0 0 3 6v12a2 2 0 0 0 3.029 1.715l9.997-5.998a2 2 0 0 0 .003-3.432z" /></symbol><symbol id="i-repeat" viewBox="0 0 24 24"><path d="m17 2 4 4-4 4" />
  <path d="M3 11v-1a4 4 0 0 1 4-4h14" />
  <path d="m7 22-4-4 4-4" />
  <path d="M21 13v1a4 4 0 0 1-4 4H3" /></symbol><symbol id="i-shuffle" viewBox="0 0 24 24"><path d="m18 14 4 4-4 4" />
  <path d="m18 2 4 4-4 4" />
  <path d="M2 18h1.973a4 4 0 0 0 3.3-1.7l5.454-8.6a4 4 0 0 1 3.3-1.7H22" />
  <path d="M2 6h1.972a4 4 0 0 1 3.6 2.2" />
  <path d="M22 18h-6.041a4 4 0 0 1-3.3-1.8l-.359-.45" /></symbol><symbol id="i-undo-2" viewBox="0 0 24 24"><path d="M9 14 4 9l5-5" />
  <path d="M4 9h10.5a5.5 5.5 0 0 1 5.5 5.5a5.5 5.5 0 0 1-5.5 5.5H11" /></symbol><symbol id="i-redo-2" viewBox="0 0 24 24"><path d="m15 14 5-5-5-5" />
  <path d="M20 9H9.5A5.5 5.5 0 0 0 4 14.5A5.5 5.5 0 0 0 9.5 20H13" /></symbol><symbol id="i-pencil" viewBox="0 0 24 24"><path d="M21.174 6.812a1 1 0 0 0-3.986-3.987L3.842 16.174a2 2 0 0 0-.5.83l-1.321 4.352a.5.5 0 0 0 .623.622l4.353-1.32a2 2 0 0 0 .83-.497z" />
  <path d="m15 5 4 4" /></symbol><symbol id="i-eraser" viewBox="0 0 24 24"><path d="M21 21H8a2 2 0 0 1-1.42-.587l-3.994-3.999a2 2 0 0 1 0-2.828l10-10a2 2 0 0 1 2.829 0l5.999 6a2 2 0 0 1 0 2.828L12.834 21" />
  <path d="m5.082 11.09 8.828 8.828" /></symbol><symbol id="i-trash-2" viewBox="0 0 24 24"><path d="M10 11v6" />
  <path d="M14 11v6" />
  <path d="M19 6v14a2 2 0 0 1-2 2H7a2 2 0 0 1-2-2V6" />
  <path d="M3 6h18" />
  <path d="M8 6V4a2 2 0 0 1 2-2h4a2 2 0 0 1 2 2v2" /></symbol><symbol id="i-copy" viewBox="0 0 24 24"><rect width="14" height="14" x="8" y="8" rx="2" ry="2" />
  <path d="M4 16c-1.1 0-2-.9-2-2V4c0-1.1.9-2 2-2h10c1.1 0 2 .9 2 2" /></symbol><symbol id="i-clipboard-paste" viewBox="0 0 24 24"><path d="M11 14h10" />
  <path d="M16 4h2a2 2 0 0 1 2 2v1.344" />
  <path d="m17 18 4-4-4-4" />
  <path d="M8 4H6a2 2 0 0 0-2 2v14a2 2 0 0 0 2 2h12a2 2 0 0 0 1.793-1.113" />
  <rect x="8" y="2" width="8" height="4" rx="1" /></symbol><symbol id="i-save" viewBox="0 0 24 24"><path d="M15.2 3a2 2 0 0 1 1.4.6l3.8 3.8a2 2 0 0 1 .6 1.4V19a2 2 0 0 1-2 2H5a2 2 0 0 1-2-2V5a2 2 0 0 1 2-2z" />
  <path d="M17 21v-7a1 1 0 0 0-1-1H8a1 1 0 0 0-1 1v7" />
  <path d="M7 3v4a1 1 0 0 0 1 1h7" /></symbol><symbol id="i-plus" viewBox="0 0 24 24"><path d="M5 12h14" />
  <path d="M12 5v14" /></symbol><symbol id="i-minus" viewBox="0 0 24 24"><path d="M5 12h14" /></symbol><symbol id="i-x" viewBox="0 0 24 24"><path d="M18 6 6 18" />
  <path d="m6 6 12 12" /></symbol><symbol id="i-check" viewBox="0 0 24 24"><path d="M20 6 9 17l-5-5" /></symbol><symbol id="i-file" viewBox="0 0 24 24"><path d="M6 22a2 2 0 0 1-2-2V4a2 2 0 0 1 2-2h8a2.4 2.4 0 0 1 1.704.706l3.588 3.588A2.4 2.4 0 0 1 20 8v12a2 2 0 0 1-2 2z" />
  <path d="M14 2v5a1 1 0 0 0 1 1h5" /></symbol><symbol id="i-folder-open" viewBox="0 0 24 24"><path d="m6 14 1.5-2.9A2 2 0 0 1 9.24 10H20a2 2 0 0 1 1.94 2.5l-1.54 6a2 2 0 0 1-1.95 1.5H4a2 2 0 0 1-2-2V5a2 2 0 0 1 2-2h3.9a2 2 0 0 1 1.69.9l.81 1.2a2 2 0 0 0 1.67.9H18a2 2 0 0 1 2 2v2" /></symbol><symbol id="i-download" viewBox="0 0 24 24"><path d="M12 15V3" />
  <path d="M21 15v4a2 2 0 0 1-2 2H5a2 2 0 0 1-2-2v-4" />
  <path d="m7 10 5 5 5-5" /></symbol><symbol id="i-upload" viewBox="0 0 24 24"><path d="M12 3v12" />
  <path d="m17 8-5-5-5 5" />
  <path d="M21 15v4a2 2 0 0 1-2 2H5a2 2 0 0 1-2-2v-4" /></symbol><symbol id="i-external-link" viewBox="0 0 24 24"><path d="M15 3h6v6" />
  <path d="M10 14 21 3" />
  <path d="M18 13v6a2 2 0 0 1-2 2H5a2 2 0 0 1-2-2V8a2 2 0 0 1 2-2h6" /></symbol><symbol id="i-printer" viewBox="0 0 24 24"><path d="M6 18H4a2 2 0 0 1-2-2v-5a2 2 0 0 1 2-2h16a2 2 0 0 1 2 2v5a2 2 0 0 1-2 2h-2" />
  <path d="M6 9V3a1 1 0 0 1 1-1h10a1 1 0 0 1 1 1v6" />
  <rect x="6" y="14" width="12" height="8" rx="1" /></symbol><symbol id="i-share-2" viewBox="0 0 24 24"><circle cx="18" cy="5" r="3" />
  <circle cx="6" cy="12" r="3" />
  <circle cx="18" cy="19" r="3" />
  <line x1="8.59" x2="15.42" y1="13.51" y2="17.49" />
  <line x1="15.41" x2="8.59" y1="6.51" y2="10.49" /></symbol><symbol id="i-link-2" viewBox="0 0 24 24"><path d="M9 17H7A5 5 0 0 1 7 7h2" />
  <path d="M15 7h2a5 5 0 1 1 0 10h-2" />
  <line x1="8" x2="16" y1="12" y2="12" /></symbol><symbol id="i-qr-code" viewBox="0 0 24 24"><rect width="5" height="5" x="3" y="3" rx="1" />
  <rect width="5" height="5" x="16" y="3" rx="1" />
  <rect width="5" height="5" x="3" y="16" rx="1" />
  <path d="M21 16h-3a2 2 0 0 0-2 2v3" />
  <path d="M21 21v.01" />
  <path d="M12 7v3a2 2 0 0 1-2 2H7" />
  <path d="M3 12h.01" />
  <path d="M12 3h.01" />
  <path d="M12 16v.01" />
  <path d="M16 12h1" />
  <path d="M21 12v.01" />
  <path d="M12 21v-1" /></symbol><symbol id="i-mail" viewBox="0 0 24 24"><path d="m22 7-8.991 5.727a2 2 0 0 1-2.009 0L2 7" />
  <rect x="2" y="4" width="20" height="16" rx="2" /></symbol><symbol id="i-menu" viewBox="0 0 24 24"><path d="M4 5h16" />
  <path d="M4 12h16" />
  <path d="M4 19h16" /></symbol><symbol id="i-search" viewBox="0 0 24 24"><path d="m21 21-4.34-4.34" />
  <circle cx="11" cy="11" r="8" /></symbol><symbol id="i-settings" viewBox="0 0 24 24"><path d="M9.671 4.136a2.34 2.34 0 0 1 4.659 0 2.34 2.34 0 0 0 3.319 1.915 2.34 2.34 0 0 1 2.33 4.033 2.34 2.34 0 0 0 0 3.831 2.34 2.34 0 0 1-2.33 4.033 2.34 2.34 0 0 0-3.319 1.915 2.34 2.34 0 0 1-4.659 0 2.34 2.34 0 0 0-3.32-1.915 2.34 2.34 0 0 1-2.33-4.033 2.34 2.34 0 0 0 0-3.831A2.34 2.34 0 0 1 6.35 6.051a2.34 2.34 0 0 0 3.319-1.915" />
  <circle cx="12" cy="12" r="3" /></symbol><symbol id="i-sliders-horizontal" viewBox="0 0 24 24"><path d="M10 5H3" />
  <path d="M12 19H3" />
  <path d="M14 3v4" />
  <path d="M16 17v4" />
  <path d="M21 12h-9" />
  <path d="M21 19h-5" />
  <path d="M21 5h-7" />
  <path d="M8 10v4" />
  <path d="M8 12H3" /></symbol><symbol id="i-sliders-vertical" viewBox="0 0 24 24"><path d="M10 8h4" />
  <path d="M12 21v-9" />
  <path d="M12 8V3" />
  <path d="M17 16h4" />
  <path d="M19 12V3" />
  <path d="M19 21v-5" />
  <path d="M3 14h4" />
  <path d="M5 10V3" />
  <path d="M5 21v-7" /></symbol><symbol id="i-eye" viewBox="0 0 24 24"><path d="M2.062 12.348a1 1 0 0 1 0-.696 10.75 10.75 0 0 1 19.876 0 1 1 0 0 1 0 .696 10.75 10.75 0 0 1-19.876 0" />
  <circle cx="12" cy="12" r="3" /></symbol><symbol id="i-eye-off" viewBox="0 0 24 24"><path d="M10.733 5.076a10.744 10.744 0 0 1 11.205 6.575 1 1 0 0 1 0 .696 10.747 10.747 0 0 1-1.444 2.49" />
  <path d="M14.084 14.158a3 3 0 0 1-4.242-4.242" />
  <path d="M17.479 17.499a10.75 10.75 0 0 1-15.417-5.151 1 1 0 0 1 0-.696 10.75 10.75 0 0 1 4.446-5.143" />
  <path d="m2 2 20 20" /></symbol><symbol id="i-moon" viewBox="0 0 24 24"><path d="M20.985 12.486a9 9 0 1 1-9.473-9.472c.405-.022.617.46.402.803a6 6 0 0 0 8.268 8.268c.344-.215.825-.004.803.401" /></symbol><symbol id="i-sun" viewBox="0 0 24 24"><circle cx="12" cy="12" r="4" />
  <path d="M12 2v2" />
  <path d="M12 20v2" />
  <path d="m4.93 4.93 1.41 1.41" />
  <path d="m17.66 17.66 1.41 1.41" />
  <path d="M2 12h2" />
  <path d="M20 12h2" />
  <path d="m6.34 17.66-1.41 1.41" />
  <path d="m19.07 4.93-1.41 1.41" /></symbol><symbol id="i-chevron-up" viewBox="0 0 24 24"><path d="m18 15-6-6-6 6" /></symbol><symbol id="i-chevron-down" viewBox="0 0 24 24"><path d="m6 9 6 6 6-6" /></symbol><symbol id="i-chevron-left" viewBox="0 0 24 24"><path d="m15 18-6-6 6-6" /></symbol><symbol id="i-chevron-right" viewBox="0 0 24 24"><path d="m9 18 6-6-6-6" /></symbol><symbol id="i-chevrons-up-down" viewBox="0 0 24 24"><path d="m7 15 5 5 5-5" />
  <path d="m7 9 5-5 5 5" /></symbol><symbol id="i-more-horizontal" viewBox="0 0 24 24"><circle cx="12" cy="12" r="1" />
  <circle cx="19" cy="12" r="1" />
  <circle cx="5" cy="12" r="1" /></symbol><symbol id="i-info" viewBox="0 0 24 24"><circle cx="12" cy="12" r="10" />
  <path d="M12 16v-4" />
  <path d="M12 8h.01" /></symbol><symbol id="i-circle-help" viewBox="0 0 24 24"><circle cx="12" cy="12" r="10" />
  <path d="M9.09 9a3 3 0 0 1 5.83 1c0 2-3 3-3 3" />
  <path d="M12 17h.01" /></symbol><symbol id="i-circle-alert" viewBox="0 0 24 24"><circle cx="12" cy="12" r="10" />
  <line x1="12" x2="12" y1="8" y2="12" />
  <line x1="12" x2="12.01" y1="16" y2="16" /></symbol><symbol id="i-keyboard" viewBox="0 0 24 24"><path d="M10 8h.01" />
  <path d="M12 12h.01" />
  <path d="M14 8h.01" />
  <path d="M16 12h.01" />
  <path d="M18 8h.01" />
  <path d="M6 8h.01" />
  <path d="M7 16h10" />
  <path d="M8 12h.01" />
  <rect width="20" height="16" x="2" y="4" rx="2" /></symbol><symbol id="i-maximize-2" viewBox="0 0 24 24"><path d="M15 3h6v6" />
  <path d="m21 3-7 7" />
  <path d="m3 21 7-7" />
  <path d="M9 21H3v-6" /></symbol><symbol id="i-grid-3x3" viewBox="0 0 24 24"><rect width="18" height="18" x="3" y="3" rx="2" />
  <path d="M3 9h18" />
  <path d="M3 15h18" />
  <path d="M9 3v18" />
  <path d="M15 3v18" /></symbol><symbol id="i-list" viewBox="0 0 24 24"><path d="M3 5h.01" />
  <path d="M3 12h.01" />
  <path d="M3 19h.01" />
  <path d="M8 5h13" />
  <path d="M8 12h13" />
  <path d="M8 19h13" /></symbol><symbol id="i-list-checks" viewBox="0 0 24 24"><path d="M13 5h8" />
  <path d="M13 12h8" />
  <path d="M13 19h8" />
  <path d="m3 17 2 2 4-4" />
  <path d="m3 7 2 2 4-4" /></symbol><symbol id="i-lock" viewBox="0 0 24 24"><rect width="18" height="11" x="3" y="11" rx="2" ry="2" />
  <path d="M7 11V7a5 5 0 0 1 10 0v4" /></symbol><symbol id="i-unlock" viewBox="0 0 24 24"><rect width="18" height="11" x="3" y="11" rx="2" ry="2" />
  <path d="M7 11V7a5 5 0 0 1 9.9-1" /></symbol><symbol id="i-user" viewBox="0 0 24 24"><path d="M19 21v-2a4 4 0 0 0-4-4H9a4 4 0 0 0-4 4v2" />
  <circle cx="12" cy="7" r="4" /></symbol><symbol id="i-users" viewBox="0 0 24 24"><path d="M16 21v-2a4 4 0 0 0-4-4H6a4 4 0 0 0-4 4v2" />
  <path d="M16 3.128a4 4 0 0 1 0 7.744" />
  <path d="M22 21v-2a4 4 0 0 0-3-3.87" />
  <circle cx="9" cy="7" r="4" /></symbol><symbol id="i-log-in" viewBox="0 0 24 24"><path d="m10 17 5-5-5-5" />
  <path d="M15 12H3" />
  <path d="M15 3h4a2 2 0 0 1 2 2v14a2 2 0 0 1-2 2h-4" /></symbol><symbol id="i-log-out" viewBox="0 0 24 24"><path d="m16 17 5-5-5-5" />
  <path d="M21 12H9" />
  <path d="M9 21H5a2 2 0 0 1-2-2V5a2 2 0 0 1 2-2h4" /></symbol><symbol id="i-cloud" viewBox="0 0 24 24"><path d="M17.5 19H9a7 7 0 1 1 6.71-9h1.79a4.5 4.5 0 1 1 0 9Z" /></symbol><symbol id="i-cloud-off" viewBox="0 0 24 24"><path d="M10.94 5.274A7 7 0 0 1 15.71 10h1.79a4.5 4.5 0 0 1 4.222 6.057" />
  <path d="M18.796 18.81A4.5 4.5 0 0 1 17.5 19H9A7 7 0 0 1 5.79 5.78" />
  <path d="m2 2 20 20" /></symbol><symbol id="i-refresh-cw" viewBox="0 0 24 24"><path d="M3 12a9 9 0 0 1 9-9 9.75 9.75 0 0 1 6.74 2.74L21 8" />
  <path d="M21 3v5h-5" />
  <path d="M21 12a9 9 0 0 1-9 9 9.75 9.75 0 0 1-6.74-2.74L3 16" />
  <path d="M8 16H3v5" /></symbol><symbol id="i-star" viewBox="0 0 24 24"><path d="M11.525 2.295a.53.53 0 0 1 .95 0l2.31 4.679a2.123 2.123 0 0 0 1.595 1.16l5.166.756a.53.53 0 0 1 .294.904l-3.736 3.638a2.123 2.123 0 0 0-.611 1.878l.882 5.14a.53.53 0 0 1-.771.56l-4.618-2.428a2.122 2.122 0 0 0-1.973 0L6.396 21.01a.53.53 0 0 1-.77-.56l.881-5.139a2.122 2.122 0 0 0-.611-1.879L2.16 9.795a.53.53 0 0 1 .294-.906l5.165-.755a2.122 2.122 0 0 0 1.597-1.16z" /></symbol><symbol id="i-heart" viewBox="0 0 24 24"><path d="M2 9.5a5.5 5.5 0 0 1 9.591-3.676.56.56 0 0 0 .818 0A5.49 5.49 0 0 1 22 9.5c0 2.29-1.5 4-3 5.5l-5.492 5.313a2 2 0 0 1-3 .019L5 15c-1.5-1.5-3-3.2-3-5.5" /></symbol><symbol id="i-flag" viewBox="0 0 24 24"><path d="M4 22V4a1 1 0 0 1 .4-.8A6 6 0 0 1 8 2c3 0 5 2 7.333 2q2 0 3.067-.8A1 1 0 0 1 20 4v10a1 1 0 0 1-.4.8A6 6 0 0 1 16 16c-3 0-5-2-8-2a6 6 0 0 0-4 1.528" /></symbol><symbol id="i-bookmark" viewBox="0 0 24 24"><path d="M17 3a2 2 0 0 1 2 2v15a1 1 0 0 1-1.496.868l-4.512-2.578a2 2 0 0 0-1.984 0l-4.512 2.578A1 1 0 0 1 5 20V5a2 2 0 0 1 2-2z" /></symbol><symbol id="i-music" viewBox="0 0 24 24"><path d="M9 18V5l12-2v13" />
  <circle cx="6" cy="18" r="3" />
  <circle cx="18" cy="16" r="3" /></symbol><symbol id="i-music-2" viewBox="0 0 24 24"><circle cx="8" cy="18" r="4" />
  <path d="M12 18V2l7 4" /></symbol><symbol id="i-music-4" viewBox="0 0 24 24"><path d="M9 18V5l12-2v13" />
  <path d="m9 9 12-2" />
  <circle cx="6" cy="18" r="3" />
  <circle cx="18" cy="16" r="3" /></symbol><symbol id="i-guitar" viewBox="0 0 24 24"><path d="m11.9 12.1 4.514-4.514" />
  <path d="M20.1 2.3a1 1 0 0 0-1.4 0l-1.114 1.114A2 2 0 0 0 17 4.828v1.344a2 2 0 0 1-.586 1.414A2 2 0 0 1 17.828 7h1.344a2 2 0 0 0 1.414-.586L21.7 5.3a1 1 0 0 0 0-1.4z" />
  <path d="m6 16 2 2" />
  <path d="M8.23 9.85A3 3 0 0 1 11 8a5 5 0 0 1 5 5 3 3 0 0 1-1.85 2.77l-.92.38A2 2 0 0 0 12 18a4 4 0 0 1-4 4 6 6 0 0 1-6-6 4 4 0 0 1 4-4 2 2 0 0 0 1.85-1.23z" /></symbol><symbol id="i-piano" viewBox="0 0 24 24"><path d="M18.5 8c-1.4 0-2.6-.8-3.2-2A6.87 6.87 0 0 0 2 9v11a2 2 0 0 0 2 2h16a2 2 0 0 0 2-2v-8.5C22 9.6 20.4 8 18.5 8" />
  <path d="M2 14h20" />
  <path d="M6 14v4" />
  <path d="M10 14v4" />
  <path d="M14 14v4" />
  <path d="M18 14v4" /></symbol><symbol id="i-drum" viewBox="0 0 24 24"><path d="m2 2 8 8" />
  <path d="m22 2-8 8" />
  <ellipse cx="12" cy="9" rx="10" ry="5" />
  <path d="M7 13.4v7.9" />
  <path d="M12 14v8" />
  <path d="M17 13.4v7.9" />
  <path d="M2 9v8a10 5 0 0 0 20 0V9" /></symbol><symbol id="i-metronome" viewBox="0 0 24 24"><path d="M12 11.4V9.1" />
  <path d="m12 17 6.59-6.59" />
  <path d="m15.05 5.7-.218-.691a3 3 0 0 0-5.663 0L4.418 19.695A1 1 0 0 0 5.37 21h13.253a1 1 0 0 0 .951-1.31L18.45 16.2" />
  <circle cx="20" cy="9" r="2" /></symbol><symbol id="i-audio-lines" viewBox="0 0 24 24"><path d="M2 10v3" />
  <path d="M6 6v11" />
  <path d="M10 3v18" />
  <path d="M14 8v7" />
  <path d="M18 5v13" />
  <path d="M22 10v3" /></symbol><symbol id="i-mic-vocal" viewBox="0 0 24 24"><path d="m11 7.601-5.994 8.19a1 1 0 0 0 .1 1.298l.817.818a1 1 0 0 0 1.314.087L15.09 12" />
  <path d="M16.5 21.174C15.5 20.5 14.372 20 13 20c-2.058 0-3.928 2.356-6 2-2.072-.356-2.775-3.369-1.5-4.5" />
  <circle cx="16" cy="7" r="5" /></symbol><symbol id="i-volume-2" viewBox="0 0 24 24"><path d="M11 4.702a.705.705 0 0 0-1.203-.498L6.413 7.587A1.4 1.4 0 0 1 5.416 8H3a1 1 0 0 0-1 1v6a1 1 0 0 0 1 1h2.416a1.4 1.4 0 0 1 .997.413l3.383 3.384A.705.705 0 0 0 11 19.298z" />
  <path d="M16 9a5 5 0 0 1 0 6" />
  <path d="M19.364 18.364a9 9 0 0 0 0-12.728" /></symbol><symbol id="i-volume-x" viewBox="0 0 24 24"><path d="M11 4.702a.705.705 0 0 0-1.203-.498L6.413 7.587A1.4 1.4 0 0 1 5.416 8H3a1 1 0 0 0-1 1v6a1 1 0 0 0 1 1h2.416a1.4 1.4 0 0 1 .997.413l3.383 3.384A.705.705 0 0 0 11 19.298z" />
  <line x1="22" x2="16" y1="9" y2="15" />
  <line x1="16" x2="22" y1="9" y2="15" /></symbol><symbol id="i-gauge" viewBox="0 0 24 24"><path d="m12 14 4-4" />
  <path d="M3.34 19a10 10 0 1 1 17.32 0" /></symbol><symbol id="i-timer" viewBox="0 0 24 24"><line x1="10" x2="14" y1="2" y2="2" />
  <line x1="12" x2="15" y1="14" y2="11" />
  <circle cx="12" cy="14" r="8" /></symbol><symbol id="i-clock" viewBox="0 0 24 24"><circle cx="12" cy="12" r="10" />
  <path d="M12 6v6l4 2" /></symbol><symbol id="i-activity" viewBox="0 0 24 24"><path d="M22 12h-2.48a2 2 0 0 0-1.93 1.46l-2.35 8.36a.25.25 0 0 1-.48 0L9.24 2.18a.25.25 0 0 0-.48 0l-2.35 8.36A2 2 0 0 1 4.49 12H2" /></symbol><symbol id="i-keyboard-music" viewBox="0 0 24 24"><rect width="20" height="16" x="2" y="4" rx="2" />
  <path d="M6 8h4" />
  <path d="M14 8h.01" />
  <path d="M18 8h.01" />
  <path d="M2 12h20" />
  <path d="M6 12v4" />
  <path d="M10 12v4" />
  <path d="M14 12v4" />
  <path d="M18 12v4" /></symbol><symbol id="i-circle-play" viewBox="0 0 24 24"><path d="M9 9.003a1 1 0 0 1 1.517-.859l4.997 2.997a1 1 0 0 1 0 1.718l-4.997 2.997A1 1 0 0 1 9 14.996z" />
  <circle cx="12" cy="12" r="10" /></symbol><symbol id="i-cable" viewBox="0 0 24 24"><path d="M17 19a1 1 0 0 1-1-1v-2a2 2 0 0 1 2-2h2a2 2 0 0 1 2 2v2a1 1 0 0 1-1 1z" />
  <path d="M17 21v-2" />
  <path d="M19 14V6.5a1 1 0 0 0-7 0v11a1 1 0 0 1-7 0V10" />
  <path d="M21 21v-2" />
  <path d="M3 5V3" />
  <path d="M4 10a2 2 0 0 1-2-2V6a1 1 0 0 1 1-1h4a1 1 0 0 1 1 1v2a2 2 0 0 1-2 2z" />
  <path d="M7 5V3" /></symbol><symbol id="i-plug" viewBox="0 0 24 24"><path d="M12 22v-5" />
  <path d="M15 8V2" />
  <path d="M17 8a1 1 0 0 1 1 1v4a4 4 0 0 1-4 4h-4a4 4 0 0 1-4-4V9a1 1 0 0 1 1-1z" />
  <path d="M9 8V2" /></symbol><symbol id="i-plug-zap" viewBox="0 0 24 24"><path d="M6.3 20.3a2.4 2.4 0 0 0 3.4 0L12 18l-6-6-2.3 2.3a2.4 2.4 0 0 0 0 3.4Z" />
  <path d="m2 22 3-3" />
  <path d="M7.5 13.5 10 11" />
  <path d="M10.5 16.5 13 14" />
  <path d="m18 3-4 4h6l-4 4" /></symbol><symbol id="i-usb" viewBox="0 0 24 24"><circle cx="10" cy="7" r="1" />
  <circle cx="4" cy="20" r="1" />
  <path d="M4.7 19.3 19 5" />
  <path d="m21 3-3 1 2 2Z" />
  <path d="M9.26 7.68 5 12l2 5" />
  <path d="m10 14 5 2 3.5-3.5" />
  <path d="m18 12 1-1 1 1-1 1Z" /></symbol><symbol id="i-bluetooth" viewBox="0 0 24 24"><path d="m7 7 10 10-5 5V2l5 5L7 17" /></symbol><symbol id="i-wifi" viewBox="0 0 24 24"><path d="M12 20h.01" />
  <path d="M2 8.82a15 15 0 0 1 20 0" />
  <path d="M5 12.859a10 10 0 0 1 14 0" />
  <path d="M8.5 16.429a5 5 0 0 1 7 0" /></symbol><symbol id="i-cpu" viewBox="0 0 24 24"><path d="M12 20v2" />
  <path d="M12 2v2" />
  <path d="M17 20v2" />
  <path d="M17 2v2" />
  <path d="M2 12h2" />
  <path d="M2 17h2" />
  <path d="M2 7h2" />
  <path d="M20 12h2" />
  <path d="M20 17h2" />
  <path d="M20 7h2" />
  <path d="M7 20v2" />
  <path d="M7 2v2" />
  <rect x="4" y="4" width="16" height="16" rx="2" />
  <rect x="8" y="8" width="8" height="8" rx="1" /></symbol><symbol id="i-zap" viewBox="0 0 24 24"><path d="M4 14a1 1 0 0 1-.78-1.63l9.9-10.2a.5.5 0 0 1 .86.46l-1.92 6.02A1 1 0 0 0 13 10h7a1 1 0 0 1 .78 1.63l-9.9 10.2a.5.5 0 0 1-.86-.46l1.92-6.02A1 1 0 0 0 11 14z" /></symbol><symbol id="i-power" viewBox="0 0 24 24"><path d="M12 2v10" />
  <path d="M18.4 6.6a9 9 0 1 1-12.77.04" /></symbol><symbol id="i-wrench" viewBox="0 0 24 24"><path d="M14.7 6.3a1 1 0 0 0 0 1.4l1.6 1.6a1 1 0 0 0 1.4 0l3.106-3.105c.32-.322.863-.22.983.218a6 6 0 0 1-8.259 7.057l-7.91 7.91a1 1 0 0 1-2.999-3l7.91-7.91a6 6 0 0 1 7.057-8.259c.438.12.54.662.219.984z" /></symbol><symbol id="i-layers" viewBox="0 0 24 24"><path d="M12.83 2.18a2 2 0 0 0-1.66 0L2.6 6.08a1 1 0 0 0 0 1.83l8.58 3.91a2 2 0 0 0 1.66 0l8.58-3.9a1 1 0 0 0 0-1.83z" />
  <path d="M2 12a1 1 0 0 0 .58.91l8.6 3.91a2 2 0 0 0 1.65 0l8.58-3.9A1 1 0 0 0 22 12" />
  <path d="M2 17a1 1 0 0 0 .58.91l8.6 3.91a2 2 0 0 0 1.65 0l8.58-3.9A1 1 0 0 0 22 17" /></symbol><symbol id="i-box" viewBox="0 0 24 24"><path d="M21 8a2 2 0 0 0-1-1.73l-7-4a2 2 0 0 0-2 0l-7 4A2 2 0 0 0 3 8v8a2 2 0 0 0 1 1.73l7 4a2 2 0 0 0 2 0l7-4A2 2 0 0 0 21 16Z" />
  <path d="m3.3 7 8.7 5 8.7-5" />
  <path d="M12 22V12" /></symbol><symbol id="i-speaker" viewBox="0 0 24 24"><rect width="16" height="20" x="4" y="2" rx="2" />
  <path d="M12 6h.01" />
  <circle cx="12" cy="14" r="4" />
  <path d="M12 14h.01" /></symbol><symbol id="i-circle-dot" viewBox="0 0 24 24"><circle cx="12" cy="12" r="10" />
  <circle cx="12" cy="12" r="1" /></symbol><symbol id="i-toggle-right" viewBox="0 0 24 24"><circle cx="15" cy="12" r="3" />
  <rect width="20" height="14" x="2" y="5" rx="7" /></symbol><symbol id="i-midi-din" viewBox="0 0 24 24"><circle cx="12" cy="12" r="9"/><circle cx="12" cy="17" r=".5"/><circle cx="6.5" cy="13.5" r=".5"/><circle cx="17.5" cy="13.5" r=".5"/><circle cx="8" cy="8.5" r=".5"/><circle cx="16" cy="8.5" r=".5"/></symbol><symbol id="i-pedal" viewBox="0 0 24 24"><rect x="6" y="3" width="12" height="18" rx="2"/><circle cx="9.5" cy="7" r="1.2"/><circle cx="14.5" cy="7" r="1.2"/><circle cx="12" cy="16" r="2"/></symbol></svg>
